<?xml version="1.0" encoding="UTF-8" standalone="no" ?>
<!DOCTYPE svg PUBLIC "-//W3C//DTD SVG 1.1//EN" "http://www.w3.org/Graphics/SVG/1.1/DTD/svg11.dtd">
<svg xmlns="http://www.w3.org/2000/svg" xmlns:xlink="http://www.w3.org/1999/xlink" version="1.1" width="1280" height="1024" viewBox="0 0 1280 1024" xml:space="preserve">
<desc>Created with Fabric.js 4.4.0</desc>
<defs>
</defs>
<g transform="matrix(1 0 0 1 640 512)" id="background-logo"  >
<rect style="stroke: none; stroke-width: 0; stroke-dasharray: none; stroke-linecap: butt; stroke-dashoffset: 0; stroke-linejoin: miter; stroke-miterlimit: 4; fill: none; fill-rule: nonzero; opacity: 1;"  paint-order="stroke"  x="-640" y="-512" rx="0" ry="0" width="1280" height="1024" />
</g>
<g transform="matrix(3.199707426489966 0 0 3.199707426489966 630.0202648704189 476.60051555606617)" id="logo-logo"  >
<g style=""  paint-order="stroke"   >
		<g transform="matrix(0.10478481041627587 0 0 -0.10478481041627588 0 -2.842171e-14)"  >
<path style="stroke: none; stroke-width: 1; stroke-dasharray: none; stroke-linecap: butt; stroke-dashoffset: 0; stroke-linejoin: miter; stroke-miterlimit: 4; fill: #0b2149; fill-rule: evenodd; opacity: 1;"  paint-order="stroke"  transform=" translate(-1534.0820125827095, -1266.7636903806738)" d="M 2594.64 612.34 L 2594.64 1349.37 L 2980.06 612.3399999999999 z M 2534.29 612.34 L 2148.79 612.34 L 2534.29 1349.37 z M 1667.08 357.91 C 1667.08 284.44100000000003 1607.54 224.93000000000004 1534.1 224.93000000000004 C 1460.6499999999999 224.93000000000004 1401.12 284.44100000000003 1401.12 357.91 C 1401.12 431.35200000000003 1460.6499999999999 490.87100000000004 1534.1 490.87100000000004 C 1607.54 490.87100000000004 1667.08 431.35200000000003 1667.08 357.91 z M 919.477 628.129 L 534.016 628.129 L 534.016 1349.37 z M 473.539 628.129 L 88.0508 628.129 L 473.539 1349.37 Z M 3055.42 612.34 L 3045.04 612.34 L 2596.17 1509.69 C 2717.86 1524.1200000000001 2695.71 1616.38 2688.01 1634.5900000000001 C 2679.9 1653.92 2656.6400000000003 1658.9700000000003 2632.3 1637.65 C 2592.8100000000004 1599.16 2545.2000000000003 1603.23 2507.6600000000003 1616.38 C 2391.1800000000003 1671.14 2076.1600000000003 1764.2400000000002 2076.1600000000003 1764.2400000000002 C 1921.7700000000004 1810.1600000000003 1746.9300000000003 1835.1600000000003 1601.6900000000003 1840.0600000000002 L 1601.6900000000003 1914.6200000000001 C 1602.7600000000002 1940.6100000000001 1605.3300000000004 1960.5400000000002 1622.1600000000003 1992.16 C 1641.9500000000003 2029.45 1679.4500000000003 2044.3400000000001 1672.2100000000003 2073.69 L 1632.6500000000003 2234.41 C 1607.5400000000004 2336.33 1671.6500000000003 2387.7799999999997 1660.5800000000004 2414.94 L 1619.7100000000005 2514.9700000000003 C 1606.6700000000005 2546.9500000000003 1577.4300000000005 2533.0400000000004 1561.3100000000004 2507.5400000000004 C 1551.4400000000005 2491.9000000000005 1539.8000000000004 2468.0000000000005 1527.4500000000005 2439.1000000000004 L 1511.9000000000005 2444.1000000000004 C 1512.6700000000005 2449.7100000000005 1512.6700000000005 2455.9100000000003 1511.5900000000006 2462.7100000000005 L 1488.8600000000006 2470.0200000000004 C 1481.7900000000006 2468.6500000000005 1465.4300000000005 2454.1400000000003 1470.6500000000005 2418.0000000000005 L 1494.1700000000005 2410.0400000000004 C 1498.0800000000006 2413.7900000000004 1502.1900000000005 2418.6800000000003 1505.5700000000006 2424.7700000000004 L 1519.6100000000006 2420.2800000000007 C 1512.5300000000007 2402.9300000000007 1505.3300000000006 2384.2000000000007 1498.0900000000006 2364.5500000000006 L 1483.9400000000005 2369.0900000000006 C 1484.7300000000005 2374.7000000000007 1484.7400000000005 2380.890000000001 1483.6700000000005 2387.7200000000007 L 1460.9000000000005 2395.040000000001 C 1453.8800000000006 2393.670000000001 1437.5000000000005 2379.150000000001 1442.7300000000005 2343.0100000000007 L 1466.2500000000005 2335.040000000001 C 1470.1200000000003 2338.770000000001 1474.2300000000005 2343.6800000000007 1477.6100000000004 2349.790000000001 L 1491.1700000000003 2345.4300000000007 C 1484.7000000000003 2327.330000000001 1478.3300000000004 2308.750000000001 1472.1000000000004 2289.9000000000005 L 1459.4600000000003 2293.9500000000007 C 1460.2300000000002 2299.5900000000006 1460.2500000000002 2305.7600000000007 1459.1700000000003 2312.6100000000006 L 1436.4200000000003 2319.9300000000007 C 1429.3800000000003 2318.5500000000006 1413.0500000000004 2304.000000000001 1418.2700000000002 2267.870000000001 L 1441.7500000000002 2259.9300000000007 C 1445.6400000000003 2263.6300000000006 1449.7700000000002 2268.560000000001 1453.1300000000003 2274.6500000000005 L 1465.8200000000004 2270.6100000000006 C 1459.7000000000005 2251.5700000000006 1453.8200000000004 2232.5400000000004 1448.3100000000004 2213.7900000000004 L 1437.0400000000004 2217.4200000000005 C 1437.8200000000004 2223.0100000000007 1437.8400000000004 2229.2200000000007 1436.7600000000004 2236.0500000000006 L 1414.0300000000004 2243.3400000000006 C 1406.9600000000005 2241.9800000000005 1390.5900000000004 2227.4700000000007 1395.8300000000004 2191.3400000000006 L 1419.3400000000004 2183.390000000001 C 1423.2400000000005 2187.140000000001 1427.3200000000004 2192.020000000001 1430.6900000000003 2198.120000000001 L 1442.6800000000003 2194.2800000000007 C 1437.3200000000004 2175.4200000000005 1432.4200000000003 2157.120000000001 1428.0200000000002 2139.6700000000005 L 1418.2700000000002 2142.8200000000006 C 1419.0100000000002 2148.4100000000008 1419.0400000000002 2154.6100000000006 1417.9600000000003 2161.4400000000005 L 1395.2200000000003 2168.7500000000005 C 1388.1800000000003 2167.4100000000003 1371.7900000000002 2152.8800000000006 1377.0300000000002 2116.7100000000005 L 1400.5400000000002 2108.7900000000004 C 1404.4300000000003 2112.5200000000004 1408.5300000000002 2117.4300000000003 1411.88 2123.5200000000004 L 1423.19 2119.9000000000005 C 1418.0700000000002 2098.0200000000004 1414.0700000000002 2078.1400000000003 1411.4 2061.0000000000005 L 1406.88 2062.4500000000003 C 1407.63 2068.07 1407.67 2074.2400000000002 1406.5800000000002 2081.07 L 1383.8300000000002 2088.3700000000003 C 1376.7700000000002 2087.0400000000004 1360.42 2072.5000000000005 1365.65 2036.3900000000003 L 1389.16 2028.4200000000003 C 1393.0500000000002 2032.1200000000003 1397.15 2037.0400000000002 1400.5 2043.1500000000003 L 1408.76 2040.5000000000002 C 1406.96 2022.0500000000002 1407.56 2008.6700000000003 1411.37 2002.6600000000003 L 1470.75 1908.3400000000004 C 1471.03 1907.2000000000003 1471.41 1906.1100000000004 1471.84 1905.0600000000004 L 1471.84 1840.2100000000005 C 1327.06 1835.7200000000005 1148.98 1810.9800000000005 992.1519999999999 1764.2400000000005 C 992.1519999999999 1764.2400000000005 676.9689999999999 1671.1400000000006 560.473 1616.3800000000006 C 522.9449999999999 1603.2300000000005 475.4839999999999 1599.1600000000005 435.852 1637.6500000000005 C 411.65599999999995 1658.9700000000005 388.26199999999994 1653.9200000000005 380.14099999999996 1634.5900000000006 C 372.43399999999997 1616.3800000000006 350.313 1524.1200000000006 471.99199999999996 1509.6900000000005 L 23.1016 628.129 L 12.875 628.129 C -1.125 628.129 -5.04297 608.98 7.84375 603.66 C 71.4141 577.309 192.789 537.582 368.672 523.141 C 391.211 491.352 443.16 469.09 503.766 469.09 C 564.398 469.09 616.344 491.352 638.8910000000001 523.141 C 814.7500000000001 537.582 936.1450000000001 577.309 999.711 603.66 C 1012.6 608.98 1008.66 628.129 994.664 628.129 L 984.434 628.129 L 534.578 1512.37 C 563.8439999999999 1518.51 593.949 1530.01 618.8629999999999 1538.54 C 783.656 1595.6499999999999 942.1479999999999 1648.71 1116.33 1669.45 C 1222.4399999999998 1682.13 1328.52 1694.5900000000001 1471.84 1695.0800000000002 L 1471.82 1110.6600000000003 C 1395.74 1103.7700000000002 1281.27 1078.8800000000003 1246.1499999999999 987.6020000000003 C 1203.1 875.6210000000003 1306.4499999999998 792.6290000000004 1306.4499999999998 721.5780000000003 C 1306.4499999999998 650.5200000000003 1121.2899999999997 550.7190000000003 1121.2899999999997 328.9300000000003 C 1121.29 107.148 1312.97 0 1538.77 0 C 1771.25 0 1946.9 118.801 1946.9 346.641 C 1946.9 562.789 1761.72 620.082 1761.72 708.359 C 1761.72 796.6600000000001 1819.23 859.3520000000001 1824.17 908.629 C 1829.18 958.121 1822.03 981.82 1794.02 981.82 C 1766.05 981.82 1753.95 925.4490000000001 1686.53 933.75 C 1647.5 938.531 1618.83 965.172 1601.69 998.461 L 1601.69 1695.08 C 1743.13 1694.57 1847.4 1681.82 1951.79 1669.4499999999998 C 2125.98 1648.7099999999998 2284.49 1595.6499999999999 2449.42 1538.5399999999997 C 2474.37 1530.0099999999998 2504.33 1518.5099999999998 2533.7200000000003 1512.3699999999997 L 2083.85 612.34 L 2073.48 612.34 C 2059.48 612.34 2055.57 593.148 2068.43 587.82 C 2132.14 561.5310000000001 2253.41 521.75 2429.3999999999996 507.32000000000005 C 2451.8299999999995 475.53100000000006 2503.7499999999995 453.27000000000004 2564.3699999999994 453.27000000000004 C 2624.9899999999993 453.27000000000004 2677.0999999999995 475.53100000000006 2699.4899999999993 507.32000000000005 C 2875.3699999999994 521.75 2996.749999999999 561.5310000000001 3060.3099999999995 587.82 C 3073.2099999999996 593.148 3069.2599999999993 612.34 3055.4199999999996 612.34" stroke-linecap="round" />
</g>
</g>
</g>
</svg>